<?xml version="1.0" encoding="UTF-8" standalone="no"?>
<!DOCTYPE svg PUBLIC "-//W3C//DTD SVG 1.1//EN"
 "http://www.w3.org/Graphics/SVG/1.1/DTD/svg11.dtd">
<!-- Generated by graphviz version 2.36.0 (20140111.2315)
 -->
<!-- Title: %3 Pages: 1 -->
<svg width="286pt" height="332pt"
 viewBox="0.00 0.00 286.00 332.00" xmlns="http://www.w3.org/2000/svg" xmlns:xlink="http://www.w3.org/1999/xlink">
<g id="graph0" class="graph" transform="scale(1 1) rotate(0) translate(4 328)">
<title>%3</title>
<polygon fill="white" stroke="none" points="-4,4 -4,-328 282,-328 282,4 -4,4"/>
<!-- [3,1,4] -->
<g id="node1" class="node"><title>[3,1,4]</title>
<ellipse fill="none" stroke="black" cx="160" cy="-306" rx="33.5246" ry="18"/>
<text text-anchor="middle" x="160" y="-301.8" font-family="Times,serif" font-size="14.00">[3,1,4]</text>
</g>
<!-- [2,3,7] -->
<g id="node2" class="node"><title>[2,3,7]</title>
<ellipse fill="none" stroke="black" cx="118" cy="-234" rx="33.5246" ry="18"/>
<text text-anchor="middle" x="118" y="-229.8" font-family="Times,serif" font-size="14.00">[2,3,7]</text>
</g>
<!-- [3,1,4]&#45;&gt;[2,3,7] -->
<g id="edge1" class="edge"><title>[3,1,4]&#45;&gt;[2,3,7]</title>
<path fill="none" stroke="black" d="M150.259,-288.765C145.19,-280.317 138.88,-269.799 133.187,-260.312"/>
<polygon fill="black" stroke="black" points="136.126,-258.408 127.98,-251.633 130.124,-262.009 136.126,-258.408"/>
</g>
<!-- [4,3,4] -->
<g id="node3" class="node"><title>[4,3,4]</title>
<ellipse fill="none" stroke="black" cx="203" cy="-234" rx="33.5246" ry="18"/>
<text text-anchor="middle" x="203" y="-229.8" font-family="Times,serif" font-size="14.00">[4,3,4]</text>
</g>
<!-- [3,1,4]&#45;&gt;[4,3,4] -->
<g id="edge2" class="edge"><title>[3,1,4]&#45;&gt;[4,3,4]</title>
<path fill="none" stroke="black" d="M169.973,-288.765C175.162,-280.317 181.623,-269.799 187.451,-260.312"/>
<polygon fill="black" stroke="black" points="190.53,-261.986 192.782,-251.633 184.566,-258.322 190.53,-261.986"/>
</g>
<!-- [2,1,3] -->
<g id="node4" class="node"><title>[2,1,3]</title>
<ellipse fill="none" stroke="black" cx="33" cy="-162" rx="33.5246" ry="18"/>
<text text-anchor="middle" x="33" y="-157.8" font-family="Times,serif" font-size="14.00">[2,1,3]</text>
</g>
<!-- [2,3,7]&#45;&gt;[2,1,3] -->
<g id="edge3" class="edge"><title>[2,3,7]&#45;&gt;[2,1,3]</title>
<path fill="none" stroke="black" d="M100.388,-218.496C88.3072,-208.547 72.084,-195.187 58.5828,-184.068"/>
<polygon fill="black" stroke="black" points="60.5338,-181.141 50.5895,-177.485 56.0838,-186.544 60.5338,-181.141"/>
</g>
<!-- [2,4,5] -->
<g id="node5" class="node"><title>[2,4,5]</title>
<ellipse fill="none" stroke="black" cx="118" cy="-162" rx="33.5246" ry="18"/>
<text text-anchor="middle" x="118" y="-157.8" font-family="Times,serif" font-size="14.00">[2,4,5]</text>
</g>
<!-- [2,3,7]&#45;&gt;[2,4,5] -->
<g id="edge4" class="edge"><title>[2,3,7]&#45;&gt;[2,4,5]</title>
<path fill="none" stroke="black" d="M118,-215.697C118,-207.983 118,-198.712 118,-190.112"/>
<polygon fill="black" stroke="black" points="121.5,-190.104 118,-180.104 114.5,-190.104 121.5,-190.104"/>
</g>
<!-- [6,1,4] -->
<g id="node6" class="node"><title>[6,1,4]</title>
<ellipse fill="none" stroke="black" cx="203" cy="-162" rx="33.5246" ry="18"/>
<text text-anchor="middle" x="203" y="-157.8" font-family="Times,serif" font-size="14.00">[6,1,4]</text>
</g>
<!-- [4,3,4]&#45;&gt;[6,1,4] -->
<g id="edge5" class="edge"><title>[4,3,4]&#45;&gt;[6,1,4]</title>
<path fill="none" stroke="black" d="M203,-215.697C203,-207.983 203,-198.712 203,-190.112"/>
<polygon fill="black" stroke="black" points="206.5,-190.104 203,-180.104 199.5,-190.104 206.5,-190.104"/>
</g>
<!-- [1,4,4] -->
<g id="node7" class="node"><title>[1,4,4]</title>
<ellipse fill="none" stroke="black" cx="33" cy="-90" rx="33.5246" ry="18"/>
<text text-anchor="middle" x="33" y="-85.8" font-family="Times,serif" font-size="14.00">[1,4,4]</text>
</g>
<!-- [2,4,5]&#45;&gt;[1,4,4] -->
<g id="edge6" class="edge"><title>[2,4,5]&#45;&gt;[1,4,4]</title>
<path fill="none" stroke="black" d="M100.388,-146.496C88.3072,-136.547 72.084,-123.187 58.5828,-112.068"/>
<polygon fill="black" stroke="black" points="60.5338,-109.141 50.5895,-105.485 56.0838,-114.544 60.5338,-109.141"/>
</g>
<!-- [0,5,7] -->
<g id="node8" class="node"><title>[0,5,7]</title>
<ellipse fill="none" stroke="black" cx="118" cy="-90" rx="33.5246" ry="18"/>
<text text-anchor="middle" x="118" y="-85.8" font-family="Times,serif" font-size="14.00">[0,5,7]</text>
</g>
<!-- [2,4,5]&#45;&gt;[0,5,7] -->
<g id="edge7" class="edge"><title>[2,4,5]&#45;&gt;[0,5,7]</title>
<path fill="none" stroke="black" d="M118,-143.697C118,-135.983 118,-126.712 118,-118.112"/>
<polygon fill="black" stroke="black" points="121.5,-118.104 118,-108.104 114.5,-118.104 121.5,-118.104"/>
</g>
<!-- [5,2,5] -->
<g id="node9" class="node"><title>[5,2,5]</title>
<ellipse fill="none" stroke="black" cx="203" cy="-90" rx="33.5246" ry="18"/>
<text text-anchor="middle" x="203" y="-85.8" font-family="Times,serif" font-size="14.00">[5,2,5]</text>
</g>
<!-- [6,1,4]&#45;&gt;[5,2,5] -->
<g id="edge8" class="edge"><title>[6,1,4]&#45;&gt;[5,2,5]</title>
<path fill="none" stroke="black" d="M203,-143.697C203,-135.983 203,-126.712 203,-118.112"/>
<polygon fill="black" stroke="black" points="206.5,-118.104 203,-108.104 199.5,-118.104 206.5,-118.104"/>
</g>
<!-- [4,0,6] -->
<g id="node10" class="node"><title>[4,0,6]</title>
<ellipse fill="none" stroke="black" cx="160" cy="-18" rx="33.5246" ry="18"/>
<text text-anchor="middle" x="160" y="-13.8" font-family="Times,serif" font-size="14.00">[4,0,6]</text>
</g>
<!-- [5,2,5]&#45;&gt;[4,0,6] -->
<g id="edge9" class="edge"><title>[5,2,5]&#45;&gt;[4,0,6]</title>
<path fill="none" stroke="black" d="M193.027,-72.7646C187.838,-64.3172 181.377,-53.7993 175.549,-44.3122"/>
<polygon fill="black" stroke="black" points="178.434,-42.3222 170.218,-35.6334 172.47,-45.9862 178.434,-42.3222"/>
</g>
<!-- [7,1,6] -->
<g id="node11" class="node"><title>[7,1,6]</title>
<ellipse fill="none" stroke="black" cx="245" cy="-18" rx="33.5246" ry="18"/>
<text text-anchor="middle" x="245" y="-13.8" font-family="Times,serif" font-size="14.00">[7,1,6]</text>
</g>
<!-- [5,2,5]&#45;&gt;[7,1,6] -->
<g id="edge10" class="edge"><title>[5,2,5]&#45;&gt;[7,1,6]</title>
<path fill="none" stroke="black" d="M212.741,-72.7646C217.81,-64.3172 224.12,-53.7993 229.813,-44.3122"/>
<polygon fill="black" stroke="black" points="232.876,-46.0091 235.02,-35.6334 226.874,-42.4076 232.876,-46.0091"/>
</g>
</g>
</svg>
